<?xml version="1.0" encoding="UTF-8"?>
<svg width="31px" height="50px" viewBox="0 0 31 50" version="1.1" xmlns="http://www.w3.org/2000/svg" xmlns:xlink="http://www.w3.org/1999/xlink">
    <!-- Generator: Sketch 50 (54983) - http://www.bohemiancoding.com/sketch -->
    <title>Fill 1</title>
    <desc>Created with Sketch.</desc>
    <defs></defs>
    <g id="Page-1" stroke="none" stroke-width="1" fill="none" fill-rule="evenodd">
        <path d="M29.8437523,14.6875 C29.2187523,15.3125 28.5937523,15.3125 27.9687523,14.6875 L16.4062523,4.21875 L16.4062523,48.75 C16.4062523,49.5833375 15.9895923,50 15.1562523,50 C14.3229123,50 13.9062523,49.5833375 13.9062523,48.75 L13.9062523,4.21875 L2.34375233,14.6875 C1.71874933,15.3125 1.09375542,15.3125 0.468752325,14.6875 C-0.156250775,14.0625 -0.156250775,13.4375 0.468752325,12.8125 C9.53129733,4.58329 14.1145823,0.41667 14.2187523,0.3125 C14.4270823,0.10417 14.7395823,0 15.1562523,0 C15.5729223,0 15.8854223,0.10417 16.0937523,0.3125 L29.8437523,12.8125 C30.0520823,13.02083 30.1562523,13.33333 30.1562523,13.75 C30.1562523,14.16667 30.0520823,14.47917 29.8437523,14.6875 Z" id="Fill-1" fill="#000000"></path>
    </g>
</svg>