<?xml version="1.0" encoding="UTF-8"?>
<svg width="30px" height="30px" viewBox="0 0 30 30" version="1.1" xmlns="http://www.w3.org/2000/svg" xmlns:xlink="http://www.w3.org/1999/xlink">
    <!-- Generator: Sketch 50 (54983) - http://www.bohemiancoding.com/sketch -->
    <title>Fill 1</title>
    <desc>Created with Sketch.</desc>
    <defs></defs>
    <g id="Page-1" stroke="none" stroke-width="1" fill="none" fill-rule="evenodd">
        <path d="M29.21875,25.234375 C29.739585,25.8072945 30,26.484371 30,27.265625 C30,28.046879 29.739585,28.697914 29.21875,29.21875 C28.697915,29.7395859 28.04688,30 27.265625,30 C26.48437,30 25.807295,29.7395859 25.234375,29.21875 L15,18.984375 L4.765625,29.21875 C4.1927055,29.7395859 3.5416705,30 2.8125,30 C2.0833295,30 1.4322945,29.7395859 0.859375,29.21875 C0.28645545,28.697914 0,28.046879 0,27.265625 C0,26.484371 0.28645545,25.8072945 0.859375,25.234375 L11.015625,15 L0.859375,4.765625 C0.28645545,4.192705 0,3.51563 0,2.734375 C0,1.95312 0.28645545,1.302085 0.859375,0.78125 C1.4322945,0.260415 2.0833295,0 2.8125,0 C3.5416705,0 4.1927055,0.260415 4.765625,0.78125 L15,11.015625 L25.234375,0.78125 C25.807295,0.260415 26.48437,0 27.265625,0 C28.04688,0 28.697915,0.260415 29.21875,0.78125 C29.739585,1.302085 30,1.95312 30,2.734375 C30,3.51563 29.739585,4.192705 29.21875,4.765625 L18.984375,15 L29.21875,25.234375 Z" id="Fill-1" fill="#000000"></path>
    </g>
</svg>