<?xml version="1.0" encoding="UTF-8"?>
<svg width="480px" height="480px" viewBox="0 0 480 480" version="1.1" xmlns="http://www.w3.org/2000/svg" xmlns:xlink="http://www.w3.org/1999/xlink">
    <!-- Generator: Sketch 50 (54983) - http://www.bohemiancoding.com/sketch -->
    <title>relax</title>
    <desc>Created with Sketch.</desc>
    <defs></defs>
    <g id="Page-1" stroke="none" stroke-width="1" fill="none" fill-rule="evenodd">
        <g id="relax" fill="#DADADA" fill-rule="nonzero">
            <path d="M104,352 L72,352 L72,330.528 C81.555,327.15 87.958,318.134 88,308 L88,274.4 L99.096,257.768 L85.784,248.888 L70.4,272 L63.592,272 C61.383,258.931 48.997,250.127 35.928,252.336 C22.858,254.545 14.054,266.931 16.263,280 C18.22,291.575 28.261,300.035 40,300 L40,308 C40.042,318.134 46.445,327.15 56,330.528 L56,352 L24,352 C10.745,352 0,362.745 0,376 C0,389.255 10.745,400 24,400 L56,400 L56,464 L24,464 L24,480 L104,480 L104,464 L72,464 L72,400 L104,400 C117.255,400 128,389.255 128,376 C128,362.745 117.255,352 104,352 Z M40,272 L40,284 C35.582,284 32,280.418 32,276 C32,271.582 35.582,268 40,268 C42.807,268.032 45.386,269.556 46.768,272 L40,272 Z M56,288 L72,288 L72,308 C72,312.418 68.418,316 64,316 C59.582,316 56,312.418 56,308 L56,288 Z M104,384 L24,384 C19.582,384 16,380.418 16,376 C16,371.582 19.582,368 24,368 L104,368 C108.418,368 112,371.582 112,376 C112,380.418 108.418,384 104,384 Z" id="Shape"></path>
            <path d="M480,248 L480,240 C479.916,169.342 422.658,112.084 352,112 L320,112 C249.342,112.084 192.084,169.342 192,240 L192,248 L328,248 L328,400 L164,400 C148.536,400 136,412.536 136,428 C136,443.464 148.536,456 164,456 L168,456 L168,480 L184,480 L184,456 L328,456 L328,480 L344,480 L344,456 L376,456 L376,480 L392,480 L392,447.592 L471.8,367.8 C482.731,356.866 482.731,339.142 471.8,328.208 C460.72,317.629 443.28,317.629 432.2,328.208 L360.408,400 L344,400 L344,248 L480,248 Z M463.72,232 L395,232 L395,226.664 C394.848,196.919 384.648,168.099 366.056,144.88 L352.624,128 C411.11,128.392 459.474,173.667 463.72,232 Z M344,142.88 L353.536,154.88 C369.879,175.263 378.853,200.571 379,226.696 L379,232 L344,232 L344,142.88 Z M277,232 L208.28,232 C212.526,173.667 260.89,128.392 319.376,128 L305.944,144.88 C287.352,168.099 277.152,196.919 277,226.664 L277,232 Z M293,232 L293,226.664 C293.147,200.539 302.121,175.231 318.464,154.848 L328,142.88 L328,232 L293,232 Z M348,424 L348,416 L367.032,416 L379.832,403.2 L388,411.312 L399.312,400 L391.2,391.856 L403.856,379.2 L412,387.312 L423.312,376 L415.2,367.856 L427.856,355.2 L436,363.312 L447.312,352 L439.2,343.856 L443.544,339.512 C448.293,334.975 455.771,334.975 460.52,339.512 C465.205,344.198 465.205,351.794 460.52,356.48 L380.52,436.48 C378.265,438.745 375.196,440.013 372,440 L164,440 C157.373,440 152,434.627 152,428 C152,421.373 157.373,416 164,416 L172,416 L172,424 L188,424 L188,416 L204,416 L204,424 L220,424 L220,416 L236,416 L236,424 L252,424 L252,416 L268,416 L268,424 L284,424 L284,416 L300,416 L300,424 L316,424 L316,416 L332,416 L332,424 L348,424 Z" id="Shape"></path>
            <path d="M104,144 C130.499,143.974 151.974,122.499 152,96 C152,69.49 130.51,48 104,48 C77.49,48 56,69.49 56,96 C56,122.51 77.49,144 104,144 Z M104,64 C121.673,64 136,78.327 136,96 C136,113.673 121.673,128 104,128 C86.327,128 72,113.673 72,96 C72,78.327 86.327,64 104,64 Z" id="Shape"></path>
            <rect id="Rectangle-path" x="96" y="0" width="16" height="32"></rect>
            <rect id="Rectangle-path" transform="translate(160.475755, 39.546498) rotate(44.991897) translate(-160.475755, -39.546498) " x="152.475832" y="23.5466513" width="15.9998467" height="31.9996934"></rect>
            <rect id="Rectangle-path" x="168" y="88" width="32" height="16"></rect>
            <rect id="Rectangle-path" transform="translate(160.569701, 152.548080) rotate(-134.959485) translate(-160.569701, -152.548080) " x="144.56985" y="144.548154" width="31.9997011" height="15.9998506"></rect>
            <rect id="Rectangle-path" transform="translate(40.405193, 33.898358) rotate(45.000000) translate(-40.405193, -33.898358) " x="24.405346" y="25.8984351" width="31.9996931" height="15.9998466"></rect>
            <rect id="Rectangle-path" x="0" y="88" width="32" height="16"></rect>
            <rect id="Rectangle-path" x="96" y="160" width="16" height="32"></rect>
            <rect id="Rectangle-path" transform="translate(47.428895, 152.567371) rotate(-135.008103) translate(-47.428895, -152.567371) " x="39.4289718" y="136.567524" width="15.9998467" height="31.9996934"></rect>
        </g>
    </g>
</svg>